{"title":"Resurrection US S01E01 HDTV x264 AAC [GWC].mp4","uid":9734899,"size":125784540,"categoryP":"video","categoryS":"tv_shows","magnet":"?xt=urn:btih:e75289da596c3e70b0e70523187cb9a9891f2abd&amp;dn=Resurrection+US+S01E01+HDTV+x264+AAC+%5BGWC%5D.mp4&amp;tr=udp%3A%2F%2Ftracker.openbittorrent.com%3A80&amp;tr=udp%3A%2F%2Fopen.demonii.com%3A1337&amp;tr=udp%3A%2F%2Ftracker.coppersurfer.tk%3A6969&amp;tr=udp%3A%2F%2Fexodus.desync.com%3A6969","seeders":1,"leechers":0,"uploader":"canc232","files":1,"time":1394431315,"description":"Resurrection US S01E01 HDTV x264 AAC [GWC]\n\n\nSTORYLINE :\nThe lives of the people of Aurora are forever changed when their deceased loved ones return.\n\n\nSCREENS : &lt;a href=&quot;\nhttp://i.imgur.com/EDU3qzX.jpg&quot; rel=&quot;nofollow&quot; target=&quot;_NEW&quot;&gt;\nhttp://i.imgur.com/EDU3qzX.jpg&lt;/a&gt; &lt;a href=&quot;\nhttp://i.imgur.com/4QuhoyS.jpg&quot; rel=&quot;nofollow&quot; target=&quot;_NEW&quot;&gt;\nhttp://i.imgur.com/4QuhoyS.jpg&lt;/a&gt; &lt;a href=&quot;\nhttp://i.imgur.com/KgsMPVd.jpg&quot; rel=&quot;nofollow&quot; target=&quot;_NEW&quot;&gt;\nhttp://i.imgur.com/KgsMPVd.jpg&lt;/a&gt;\n\n\nMEDIA INFO :\nGeneral \nFormat : MPEG-4 \nFormat profile : Base Media \nFile size : 120 MiB \nDuration : 43mn 27s \nOverall bit rate mode : Variable \nOverall bit rate : 386 Kbps \n\nVideo \nFormat : AVC \nFormat profile : &lt;a class=&quot;__cf_email__&quot; href=&quot;/cdn-cgi/l/email-protection&quot; data-cfemail=&quot;1c54757b745c502f322c&quot;&gt;[email&amp;#160;protected]&lt;/a&gt;&lt;script cf-hash='f9e31' type=&quot;text/javascript&quot;&gt;\n/* &lt;![CDATA[ */!function(){try{var t=&quot;currentScript&quot;in document?document.currentScript:function(){for(var t=document.getElementsByTagName(&quot;script&quot;),e=t.length;e--;)if(t[e].getAttribute(&quot;cf-hash&quot;))return t[e]}();if(t&amp;&amp;t.previousSibling){var e,r,n,i,c=t.previousSibling,a=c.getAttribute(&quot;data-cfemail&quot;);if(a){for(e=&quot;&quot;,r=parseInt(a.substr(0,2),16),n=2;a.length-n;n+=2)i=parseInt(a.substr(n,2),16)^r,e+=String.fromCharCode(i);e=document.createTextNode(e),c.parentNode.replaceChild(e,c)}}}catch(u){}}();/* ]]&gt; */&lt;/script&gt; \nFormat settings, CABAC : Yes \nFormat settings, ReFrames : 4 frames \nDuration : 43mn 27s \nBit rate : 323 Kbps \nMaximum bit rate : 2 004 Kbps \nWidth : 720 pixels \nHeight : 404 pixels \nDisplay aspect ratio : 16:9 \nFrame rate : 23.976 fps \nStream size : 100 MiB (84%) \nTitle : Resurrection US S01E01 HDTV x264 AAC [GWC] \nWriting library : x264 core \n\nAudio \nFormat : AAC \nFormat profile : HE-AAC / LC \nDuration : 43mn 27s \nBit rate mode : Variable \nChannel(s) : 2 channels \nSampling rate : 48.0 KHz / 24.0 KHz \nStream size : 18.6 MiB (16%) \nLanguage : English ","torrent":{"xt":"urn:btih:e75289da596c3e70b0e70523187cb9a9891f2abd","amp;dn":"Resurrection+US+S01E01+HDTV+x264+AAC+%5BGWC%5D.mp4","amp;tr":["udp%3A%2F%2Ftracker.openbittorrent.com%3A80","udp%3A%2F%2Fopen.demonii.com%3A1337","udp%3A%2F%2Ftracker.coppersurfer.tk%3A6969","udp%3A%2F%2Fexodus.desync.com%3A6969"],"infoHash":"e75289da596c3e70b0e70523187cb9a9891f2abd","infoHashBuffer":{"type":"Buffer","data":[231,82,137,218,89,108,62,112,176,231,5,35,24,124,185,169,137,31,42,189]},"announce":[],"urlList":[]}}